<?xml version="1.0" encoding="UTF-8" standalone="no"?>
<!-- Created with Inkscape (http://www.inkscape.org/) -->

<!--
/*
 *
 * Copyright 2006-2017 CIRDLES.org
 *
 *  Licensed under the Apache License, Version 2.0 (the "License");
 *  you may not use this file except in compliance with the License.
 *  You may obtain a copy of the License at
 *
 *      http://www.apache.org/licenses/LICENSE-2.0
 *
 *  Unless required by applicable law or agreed to in writing, software
 *  distributed under the License is distributed on an "AS IS" BASIS,
 *  WITHOUT WARRANTIES OR CONDITIONS OF ANY KIND, either express or implied.
 *  See the License for the specific language governing permissions and
 *  limitations under the License.
 */
-->

<svg
   xmlns:dc="http://purl.org/dc/elements/1.1/"
   xmlns:cc="http://creativecommons.org/ns#"
   xmlns:rdf="http://www.w3.org/1999/02/22-rdf-syntax-ns#"
   xmlns:svg="http://www.w3.org/2000/svg"
   xmlns="http://www.w3.org/2000/svg"
   xmlns:sodipodi="http://sodipodi.sourceforge.net/DTD/sodipodi-0.dtd"
   xmlns:inkscape="http://www.inkscape.org/namespaces/inkscape"
   width="300"
   height="300"
   viewBox="0 0 300.00001 300.00001"
   id="svg4282"
   version="1.1"
   inkscape:version="0.91 r13725"
   sodipodi:docname="marsLogo.svg">
  <defs
     id="defs4284">
    <filter
       id="filter4342"
       style="color-interpolation-filters:sRGB"
       inkscape:menu-tooltip="Basic specular bevel to use for building textures"
       inkscape:menu="Bevels"
       inkscape:label="Combined Lighting">
      <feGaussianBlur
         id="feGaussianBlur4344"
         result="result0"
         in="SourceGraphic"
         stdDeviation="11.300000000000001" />
      <feDiffuseLighting
         id="feDiffuseLighting4346"
         result="result5"
         surfaceScale="4"
         diffuseConstant="1"
         lighting-color="#ffffff">
        <feDistantLight
           id="feDistantLight4348"
           azimuth="235"
           elevation="45" />
      </feDiffuseLighting>
      <feComposite
         id="feComposite4350"
         operator="arithmetic"
         result="fbSourceGraphic"
         in="result5"
         in2="SourceGraphic"
         k1="1.4"
         k2="0"
         k3="0"
         k4="0" />
      <feGaussianBlur
         id="feGaussianBlur4352"
         stdDeviation="6"
         in="fbSourceGraphic"
         result="result0" />
      <feSpecularLighting
         id="feSpecularLighting4354"
         in="result0"
         result="result1"
         lighting-color="#ffffff"
         surfaceScale="4"
         specularConstant="1"
         specularExponent="25">
        <feDistantLight
           id="feDistantLight4356"
           elevation="45"
           azimuth="235" />
      </feSpecularLighting>
      <feComposite
         id="feComposite4358"
         result="result4"
         in2="result1"
         in="fbSourceGraphic"
         operator="arithmetic"
         k2="1"
         k3="1"
         k1="0"
         k4="0" />
      <feComposite
         id="feComposite4360"
         in="result4"
         in2="SourceGraphic"
         result="result2"
         operator="in" />
    </filter>
    <filter
       id="filter4654"
       inkscape:label="Diffuse Light"
       style="color-interpolation-filters:sRGB">
      <feGaussianBlur
         id="feGaussianBlur4656"
         result="blur"
         stdDeviation="6"
         in="SourceGraphic" />
      <feDiffuseLighting
         id="feDiffuseLighting4658"
         result="diffuse"
         lighting-color="#ffffff"
         surfaceScale="10"
         diffuseConstant="1">
        <feDistantLight
           id="feDistantLight4660"
           azimuth="235"
           elevation="25" />
      </feDiffuseLighting>
      <feComposite
         id="feComposite4662"
         result="composite1"
         k1="1"
         operator="arithmetic"
         in2="diffuse"
         in="diffuse"
         k2="0"
         k3="0"
         k4="0" />
      <feComposite
         id="feComposite4664"
         result="composite2"
         k3="1"
         operator="arithmetic"
         k1="1"
         in2="SourceGraphic"
         in="composite1"
         k2="0"
         k4="0" />
    </filter>
    <filter
       id="filter4858"
       inkscape:label="Matte Jelly"
       style="color-interpolation-filters:sRGB">
      <feColorMatrix
         id="feColorMatrix4860"
         in="SourceGraphic"
         result="color"
         values="1 0 0 0 0 0 1 0 0 0 0 0 1 0 0 0 0 0 0.85 0" />
      <feGaussianBlur
         id="feGaussianBlur4862"
         result="blur"
         stdDeviation="7"
         in="SourceAlpha" />
      <feSpecularLighting
         id="feSpecularLighting4864"
         result="specular"
         lighting-color="#ffffff"
         surfaceScale="5"
         specularConstant="0.89999998"
         specularExponent="25"
         in="blur">
        <feDistantLight
           id="feDistantLight4866"
           azimuth="225"
           elevation="60" />
      </feSpecularLighting>
      <feComposite
         id="feComposite4868"
         result="composite1"
         operator="arithmetic"
         k2="1"
         k3="1"
         in2="SourceGraphic"
         in="specular"
         k1="0"
         k4="0" />
      <feComposite
         id="feComposite4870"
         result="composite2"
         operator="atop"
         in2="color"
         in="composite1" />
    </filter>
    <filter
       id="filter4898"
       style="color-interpolation-filters:sRGB"
       height="1.5"
       width="1.5"
       y="-0.25"
       x="-0.25"
       inkscape:menu-tooltip="Neon light effect"
       inkscape:menu="Bevels"
       inkscape:label="Neon">
      <feGaussianBlur
         id="feGaussianBlur4900"
         result="result1"
         stdDeviation="1" />
      <feComposite
         id="feComposite4902"
         operator="in"
         result="result4"
         in2="result1"
         in="result1" />
      <feGaussianBlur
         id="feGaussianBlur4904"
         in="result4"
         result="result6"
         stdDeviation="7" />
      <feComposite
         id="feComposite4906"
         result="result8"
         in2="result4"
         in="result6"
         operator="over" />
      <feComposite
         id="feComposite4908"
         in2="result8"
         in="result6"
         result="fbSourceGraphic"
         operator="in" />
      <feSpecularLighting
         id="feSpecularLighting4910"
         in="fbSourceGraphic"
         result="result1"
         lighting-color="#ffffff"
         surfaceScale="2.5"
         specularConstant="2"
         specularExponent="45">
        <fePointLight
           id="fePointLight4912"
           x="-5000"
           y="-10000"
           z="20000" />
      </feSpecularLighting>
      <feComposite
         id="feComposite4914"
         in2="fbSourceGraphic"
         in="result1"
         result="result2"
         operator="in" />
      <feComposite
         id="feComposite4916"
         in2="result2"
         in="fbSourceGraphic"
         result="result4"
         operator="arithmetic"
         k2="1.2"
         k3="1.5"
         k1="0"
         k4="0" />
      <feComposite
         id="feComposite4918"
         result="result9"
         in2="result4"
         operator="over" />
      <feBlend
         id="feBlend4920"
         in2="result9"
         mode="screen" />
    </filter>
    <clipPath
       id="clipPath5511"
       clipPathUnits="userSpaceOnUse">
      <ellipse
         ry="176.05351"
         rx="176.05354"
         cy="866.00684"
         cx="1036.827"
         id="ellipse5513"
         style="opacity:1;fill:#520000;fill-opacity:1;stroke:none;stroke-width:5;stroke-linecap:butt;stroke-linejoin:miter;stroke-miterlimit:4;stroke-dasharray:none;stroke-dashoffset:0;stroke-opacity:1" />
    </clipPath>
    <clipPath
       id="clipPath5511-6"
       clipPathUnits="userSpaceOnUse">
      <ellipse
         ry="176.05351"
         rx="176.05354"
         cy="866.00684"
         cx="1036.827"
         id="ellipse5513-4"
         style="opacity:1;fill:#520000;fill-opacity:1;stroke:none;stroke-width:5;stroke-linecap:butt;stroke-linejoin:miter;stroke-miterlimit:4;stroke-dasharray:none;stroke-dashoffset:0;stroke-opacity:1" />
    </clipPath>
    <clipPath
       id="clipPath5368"
       clipPathUnits="userSpaceOnUse">
      <circle
         style="opacity:1;fill:none;fill-opacity:1;stroke:#ffffff;stroke-width:5.4000001;stroke-linecap:butt;stroke-linejoin:miter;stroke-miterlimit:4;stroke-dasharray:none;stroke-dashoffset:0;stroke-opacity:1"
         id="circle5370"
         cx="2350"
         cy="1302.3622"
         r="126.71696" />
    </clipPath>
    <clipPath
       id="clipPath5867"
       clipPathUnits="userSpaceOnUse">
      <circle
         r="158.3548"
         cy="864.91125"
         cx="1824.7369"
         id="circle5869"
         style="opacity:1;fill:none;fill-opacity:1;stroke:#ffffff;stroke-width:6.7482357;stroke-linecap:butt;stroke-linejoin:miter;stroke-miterlimit:4;stroke-dasharray:none;stroke-dashoffset:0;stroke-opacity:1" />
    </clipPath>
    <clipPath
       clipPathUnits="userSpaceOnUse"
       id="clipPath4225">
      <path
         inkscape:tile-y0="223.86221"
         inkscape:tile-x0="179.50031"
         style="color:#000000;clip-rule:nonzero;display:inline;overflow:visible;visibility:visible;opacity:1;isolation:auto;mix-blend-mode:normal;color-interpolation:sRGB;color-interpolation-filters:linearRGB;solid-color:#000000;solid-opacity:1;fill:#f85054;fill-opacity:1;fill-rule:nonzero;stroke:#000000;stroke-width:0.36697373;stroke-linecap:butt;stroke-linejoin:miter;stroke-miterlimit:4;stroke-dasharray:none;stroke-dashoffset:0;stroke-opacity:1;color-rendering:auto;image-rendering:auto;shape-rendering:auto;text-rendering:auto;enable-background:accumulate"
         d="m 1827.9395,32.95461 c -2.36,0 -4.5406,1.25866 -5.7206,3.30258 -1.18,2.04378 -1.18,4.56178 0,6.60566 1.18,2.04382 3.3606,3.30238 5.7206,3.30238 l 26.4221,0 c 2.3599,0 4.5406,1.2594 5.7206,3.30325 1.18,2.04382 1.18,4.56181 0,6.60553 -1.18,2.04382 -3.3607,3.30254 -5.7206,3.30254 l -26.4221,0 c -2.36,-0.003 -4.5406,1.25647 -5.7206,3.30032 -1.18,2.04388 -1.18,4.56181 0,6.60553 1.18,2.04327 3.3606,3.30264 5.7206,3.30264 l 26.4221,0 c 2.3599,0 4.5406,1.25866 5.7206,3.30248 1.18,2.04388 1.18,4.56178 0,6.60563 -1.18,2.04381 -3.3607,3.30312 -5.7206,3.30312 l -26.4221,-0.003 c -2.36,-0.003 -4.5406,1.25737 -5.7206,3.30116 -1.18,2.04381 -1.18,4.56181 0,6.60559 1.18,2.04385 3.3606,3.30274 5.7206,3.30274 l 50.4221,0 c 2.3599,0 4.5406,1.25911 5.7206,3.30293 1.18,2.04385 1.18,4.56181 0,6.60566 -1.18,2.04378 -3.3607,3.30248 -5.7206,3.30248 l -32.4221,-0.003 c -2.36,-0.003 -4.5406,1.25795 -5.7206,3.30167 -1.18,2.04385 -1.18,4.56176 0,6.60549 1.18,2.04379 3.3606,3.30278 5.7206,3.30278 l 28.4221,0 c 2.3599,0 4.5406,1.25899 5.7206,3.30274 1.18,2.04378 1.18,4.56177 0,6.60555 -1.18,2.0438 -3.3607,3.30278 -5.7206,3.30278 l -52.4221,-0.002 c -2.36,-0.002 -4.5406,1.25757 -5.7206,3.30132 -1.18,2.04378 -1.18,4.5618 0,6.60558 1.18,2.04376 3.3606,3.30274 5.7206,3.30274 l 72.4221,0 c 2.3599,0 4.5406,1.25901 5.7206,3.30276 1.18,2.04377 1.18,4.56182 0,6.60557 -1.18,2.04377 -3.3607,3.30276 -5.7206,3.30276 l -90.4221,-0.002 c -2.36,-0.002 -4.5406,1.25761 -5.7206,3.30137 -1.18,2.04376 -1.18,4.56182 0,6.60557 1.18,2.04376 3.3606,3.30276 5.7206,3.30276 l 70.4221,0 c 2.3599,0 4.5406,1.25899 5.7206,3.30276 1.18,2.04379 1.18,4.56181 0,6.60556 -1.18,2.04375 -3.3607,3.30276 -5.7206,3.30276 l -26.4221,-0.002 c -2.36,-0.002 -4.5406,1.25757 -5.7206,3.30136 -1.18,2.0438 -1.18,4.56178 0,6.60553 1.18,2.04377 3.3606,3.30276 5.7206,3.30276 l 46.4221,0 c 2.3599,0 4.5406,1.25906 5.7206,3.30281 1.18,2.04374 1.18,4.56176 0,6.60552 -1.18,2.04375 -3.3607,3.3028 -5.7206,3.3028 l -66.4221,-0.002 c -2.36,-0.002 -4.5406,1.25765 -5.7206,3.30139 -1.18,2.04377 -1.18,4.56178 0,6.60553 1.18,2.04378 3.3606,3.3028 5.7206,3.3028 l 36.4221,0 c 2.3599,0 4.5406,1.25901 5.7206,3.30275 1.18,2.04377 1.18,4.56183 0,6.60558 -1.18,2.04375 -3.3607,3.30276 -5.7206,3.30276 l -50.4221,-0.002 c -2.36,-0.002 -4.5406,1.25766 -5.7206,3.30142 -1.18,2.04377 -1.18,4.56182 0,6.60557 1.18,2.04376 3.3606,3.30276 5.7206,3.30276 l 64.4221,0 c 2.3599,0 4.5406,1.259 5.7206,3.30275 1.18,2.04375 1.18,4.56182 0,6.60557 -1.18,2.04375 -3.3607,3.30276 -5.7206,3.30276 l -110.4221,-0.002 c -2.36,-0.002 -4.5406,1.25761 -5.7206,3.30136 -1.18,2.04377 -1.18,4.56182 0,6.60557 1.18,2.04377 3.3606,3.30276 5.7206,3.30276 l 86.4221,0 c 2.3599,0 4.5406,1.25903 5.7206,3.30281 1.18,2.04375 1.18,4.56175 0,6.60551 -1.18,2.04375 -3.3607,3.30277 -5.7206,3.30277 l -26.4221,-0.002 c -2.36,-0.002 -4.5406,1.25767 -5.7206,3.30142 -1.18,2.04376 -1.18,4.56175 0,6.6055 1.18,2.04375 3.3606,3.30283 5.7206,3.30283 l 26.4221,0 c 2.3599,0 4.5406,1.25899 5.7206,3.30274 1.18,2.04376 1.18,4.56177 0,6.60552 -1.18,2.0438 -3.3607,3.30281 -5.7206,3.30281 l -26.4221,-0.002 c -2.36,-0.002 -4.5406,1.25768 -5.7206,3.30143 -1.18,2.04377 -1.18,4.56176 0,6.60554 1.18,2.0438 3.3606,3.30279 5.7206,3.30279 l 26.4221,0 c 2.3599,0 4.5406,1.259 5.7206,3.30275 1.18,2.04376 1.18,4.56181 0,6.60557 -1.18,2.04375 -3.3607,3.30276 -5.7206,3.30276 l -26.4221,-0.002 c -2.36,-0.002 -4.5406,1.2576 -5.7206,3.30136 -1.18,2.04375 -1.18,4.56181 0,6.60556 1.18,2.04375 3.3606,3.30276 5.7206,3.30276 l 26.4221,0 c 2.3599,0 4.5406,1.259 5.7206,3.30276 1.18,2.04375 1.18,4.56181 0,6.60556 -1.18,2.04375 -3.3607,3.30275 -5.7206,3.30275 l -26.4221,-0.002 c -2.36,-0.002 -4.5406,1.25761 -5.7206,3.30137 -1.18,2.04382 -1.18,4.5618 0,6.60555 1.18,2.04378 3.3606,3.30276 5.7206,3.30276 l 26.4221,0 c 2.3599,0 4.5406,1.25906 5.7206,3.30282 1.18,2.04375 1.18,4.56176 0,6.60551 -1.18,2.04374 -3.3607,3.30281 -5.7206,3.30281 l -26.4221,-0.002 c -2.36,-0.002 -4.5406,1.25766 -5.7206,3.30142 -1.18,2.04375 -1.18,4.56177 0,6.60552 1.18,2.04378 3.3606,3.30278 5.7206,3.30278 l 26.4221,0 c 2.3599,0 4.5406,1.25902 5.7206,3.30277 1.18,2.04376 1.18,4.56179 0,6.60555 -1.18,2.04375 -3.3607,3.30277 -5.7206,3.30277 l -26.4221,0 -3.5028,11.12362 162,0 0,-407.4076 z"
         id="path4227"
         inkscape:connector-curvature="0"
         sodipodi:nodetypes="cssccssccssccssccssccssccssccssccssccssccssccssccssccssccssccssccssccssccssccssccssccssccssccssccssccssccssccssccssccsscc" />
    </clipPath>
  </defs>
  <sodipodi:namedview
     id="base"
     pagecolor="#ffffff"
     bordercolor="#666666"
     borderopacity="1.0"
     inkscape:pageopacity="0.0"
     inkscape:pageshadow="2"
     inkscape:zoom="1.279818"
     inkscape:cx="-23.32864"
     inkscape:cy="96.234837"
     inkscape:document-units="px"
     inkscape:current-layer="layer1"
     showgrid="false"
     inkscape:window-width="1536"
     inkscape:window-height="801"
     inkscape:window-x="-8"
     inkscape:window-y="-8"
     inkscape:window-maximized="1"
     units="px"
     showguides="false" />
  <metadata
     id="metadata4287">
    <rdf:RDF>
      <cc:Work
         rdf:about="">
        <dc:format>image/svg+xml</dc:format>
        <dc:type
           rdf:resource="http://purl.org/dc/dcmitype/StillImage" />
        <dc:title />
      </cc:Work>
    </rdf:RDF>
  </metadata>
  <g
     inkscape:label="Layer 1"
     inkscape:groupmode="layer"
     id="layer1"
     transform="translate(0,-752.36208)">
    <g
       transform="matrix(1.2042957,0,0,1.3157894,-23.41843,711.57262)"
       id="g5188"
       style="opacity:0.987;fill:#000000;fill-opacity:1;stroke:none"
       inkscape:export-xdpi="90"
       inkscape:export-ydpi="90">
      <path
         style="fill:#000000;fill-opacity:1;stroke:none"
         inkscape:connector-curvature="0"
         id="path5190"
         d="M 102.199,259 C 88.999,259 72.8,249.646 66.201,238.214 L 24.395,165.786 c -6.599,-11.433 -6.599,-30.14 0,-41.572 L 66.201,51.786 C 72.8,40.354 88.999,31 102.199,31 l 83.602,0 c 13.2,0 29.399,9.354 35.998,20.786 l 41.805,72.428 c 6.6,11.433 6.6,30.14 0,41.572 l -41.805,72.428 C 215.2,249.646 199.001,259 185.801,259 l -83.602,0 z" />
    </g>
    <text
       xml:space="preserve"
       style="font-style:normal;font-variant:normal;font-weight:normal;font-stretch:normal;font-size:45px;line-height:125%;font-family:'Century Gothic';-inkscape-font-specification:'Century Gothic, Normal';text-align:center;letter-spacing:0px;word-spacing:0px;writing-mode:lr-tb;text-anchor:middle;fill:#ffffff;fill-opacity:1;stroke:none;stroke-width:1px;stroke-linecap:butt;stroke-linejoin:miter;stroke-opacity:1;opacity:0.987;"
       x="149.26163"
       y="1011.7688"
       id="text5379"
       sodipodi:linespacing="125%"
       inkscape:export-xdpi="90"
       inkscape:export-ydpi="90"><tspan
         sodipodi:role="line"
         id="tspan5381"
         x="149.26163"
         y="1011.7688"
         style="font-style:normal;font-variant:normal;font-weight:normal;font-stretch:normal;font-size:45px;line-height:125%;font-family:Evolventa;-inkscape-font-specification:Evolventa;text-align:center;writing-mode:lr-tb;text-anchor:middle;">Mars</tspan></text>
    <g
       id="g4822"
       transform="matrix(0.86927955,0,0,0.86927955,17.944186,85.621061)"
       style="opacity:0.987"
       inkscape:export-xdpi="90"
       inkscape:export-ydpi="90">
      <path
         id="path4201"
         d="m 259.91409,900.44804 a 108,108 0 0 1 -108,107.99996 A 108,108 0 0 1 43.914087,900.44804 108,108 0 0 1 151.91409,792.44799 a 108,108 0 0 1 108,108.00005 z"
         style="color:#000000;clip-rule:nonzero;display:inline;overflow:visible;visibility:visible;opacity:1;isolation:auto;mix-blend-mode:normal;color-interpolation:sRGB;color-interpolation-filters:linearRGB;solid-color:#000000;solid-opacity:1;fill:#ff634c;fill-opacity:1;fill-rule:nonzero;stroke:none;stroke-width:2;stroke-linecap:butt;stroke-linejoin:miter;stroke-miterlimit:4;stroke-dasharray:none;stroke-dashoffset:0;stroke-opacity:1;color-rendering:auto;image-rendering:auto;shape-rendering:auto;text-rendering:auto;enable-background:accumulate"
         inkscape:connector-curvature="0" />
      <path
         clip-path="url(#clipPath4225)"
         inkscape:connector-curvature="0"
         style="color:#000000;clip-rule:nonzero;display:inline;overflow:visible;visibility:visible;opacity:1;isolation:auto;mix-blend-mode:normal;color-interpolation:sRGB;color-interpolation-filters:linearRGB;solid-color:#000000;solid-opacity:1;fill:#ffa699;fill-opacity:1;fill-rule:nonzero;stroke:none;stroke-width:2;stroke-linecap:butt;stroke-linejoin:miter;stroke-miterlimit:4;stroke-dasharray:none;stroke-dashoffset:0;stroke-opacity:1;color-rendering:auto;image-rendering:auto;shape-rendering:auto;text-rendering:auto;enable-background:accumulate"
         d="m 1949.1506,177.96194 a 108,108 0 0 1 -108,108 108,108 0 0 1 -108,-108 108,108 0 0 1 108,-107.999995 108,108 0 0 1 108,107.999995 z"
         id="path4203"
         transform="translate(-1689.2365,722.48605)" />
    </g>
  </g>
</svg>
