<?xml version="1.0" encoding="UTF-8" standalone="no"?>
<!-- Created with Inkscape (http://www.inkscape.org/) -->

<svg
   xmlns:dc="http://purl.org/dc/elements/1.1/"
   xmlns:cc="http://creativecommons.org/ns#"
   xmlns:rdf="http://www.w3.org/1999/02/22-rdf-syntax-ns#"
   xmlns:svg="http://www.w3.org/2000/svg"
   xmlns="http://www.w3.org/2000/svg"
   xmlns:sodipodi="http://sodipodi.sourceforge.net/DTD/sodipodi-0.dtd"
   xmlns:inkscape="http://www.inkscape.org/namespaces/inkscape"
   width="3.9000001in"
   height="2.2in"
   viewBox="0 0 351.00001 198.00001"
   id="svg2"
   version="1.1"
   inkscape:version="0.91 r13725"
   sodipodi:docname="CIRDLEShatLogo.svg"
   inkscape:export-filename="C:\Users\baldy\Work\CIRDLES\DRAKE\CIRDLEShatLogo.png"
   inkscape:export-xdpi="90"
   inkscape:export-ydpi="90">
  <defs
     id="defs4" />
  <sodipodi:namedview
     id="base"
     pagecolor="#ffffff"
     bordercolor="#666666"
     borderopacity="1.0"
     inkscape:pageopacity="0.0"
     inkscape:pageshadow="2"
     inkscape:zoom="0.87363281"
     inkscape:cx="96.851107"
     inkscape:cy="107.92757"
     inkscape:document-units="px"
     inkscape:current-layer="g4148"
     showgrid="false"
     units="in"
     inkscape:window-width="1536"
     inkscape:window-height="801"
     inkscape:window-x="-8"
     inkscape:window-y="-8"
     inkscape:window-maximized="1" />
  <metadata
     id="metadata7">
    <rdf:RDF>
      <cc:Work
         rdf:about="">
        <dc:format>image/svg+xml</dc:format>
        <dc:type
           rdf:resource="http://purl.org/dc/dcmitype/StillImage" />
        <dc:title></dc:title>
      </cc:Work>
    </rdf:RDF>
  </metadata>
  <g
     inkscape:label="Layer 1"
     inkscape:groupmode="layer"
     id="layer1"
     transform="translate(0,-854.36215)">
    <g
       id="g4148"
       transform="matrix(5.6865704,0,0,5.6865704,4.9028868,783.04937)">
      <g
         id="g4137"
         inkscape:export-xdpi="90"
         inkscape:export-ydpi="90"
         style="stroke:#000000;stroke-opacity:1;stroke-width:0.00879265;stroke-miterlimit:4;stroke-dasharray:none">
        <path
           id="path4139"
           d="m 45.1,21.5 c 0,0 0.3,-0.1 0.8,-0.4 0.5,-0.3 1.2,-0.6 2.2,-1.1 0.9,-0.4 2.1,-0.9 3.5,-1.4 1.4,-0.5 2.9,-1 4.8,-1.2 0.5,0 1,0 1.5,0.1 0.3,0.1 0.6,0.2 0.8,0.4 0.1,0.1 0.3,0.2 0.4,0.3 l 0.2,0.2 0.1,0.2 c 0.3,0.8 0.1,1.4 -0.1,1.9 -0.2,0.5 -0.5,1 -0.8,1.5 -1.2,1.8 -2.8,3.3 -4.5,4.8 -3.4,3 -7.4,5.6 -11.5,8.1 -2.1,1.2 -4.2,2.3 -6.3,3.3 -2.1,1 -4.3,1.9 -6.4,2.7 -2.1,0.8 -4.2,1.4 -6.3,1.7 -1.1,0.1 -2.1,0.2 -3.3,-0.1 -0.3,-0.1 -0.6,-0.2 -0.8,-0.5 -0.1,-0.1 -0.2,-0.3 -0.3,-0.4 l 0,0 c 0,0.1 -0.1,-0.1 -0.1,-0.1 l 0,0 0,-0.1 0,-0.1 c -0.2,-0.8 0.1,-1.3 0.2,-1.8 0.4,-0.9 1,-1.6 1.5,-2.2 0.6,-0.6 1.1,-1.2 1.7,-1.6 1.1,-1 2.1,-1.7 2.9,-2.4 0.8,-0.6 1.5,-1.1 2,-1.4 0.5,-0.3 0.7,-0.5 0.7,-0.5 0,0 -0.9,0.8 -2.4,2.1 -0.8,0.7 -1.7,1.6 -2.6,2.6 -0.5,0.5 -1,1.1 -1.4,1.7 -0.5,0.6 -0.9,1.3 -1.2,2 -0.1,0.4 -0.2,0.7 -0.1,0.9 l 0.1,0.2 0,0.1 0,0 c 0,0 -0.1,-0.2 0,-0.1 l 0,0 c 0,0 0.1,0.1 0.1,0.1 0.1,0.1 0.2,0.1 0.4,0.2 0.7,0.2 1.7,0.1 2.6,-0.1 1.9,-0.4 3.9,-1.1 5.9,-1.9 2,-0.8 4.1,-1.8 6.1,-2.8 2.1,-1 4.1,-2.1 6.1,-3.3 2,-1.2 4,-2.4 5.9,-3.7 1.9,-1.3 3.7,-2.6 5.4,-4 1.7,-1.4 3.3,-2.8 4.4,-4.3 0.3,-0.4 0.5,-0.8 0.7,-1.1 0.2,-0.4 0.2,-0.8 0.2,-0.9 -0.1,-0.2 -0.3,-0.4 -0.6,-0.5 -0.4,-0.1 -0.8,-0.1 -1.2,-0.1 -1.7,0 -3.3,0.4 -4.6,0.7 -1.4,0.4 -2.6,0.7 -3.6,1.1 -2,0.8 -3.1,1.2 -3.1,1.2 z"
           inkscape:connector-curvature="0"
           style="fill:#f8991d;stroke:#000000;stroke-opacity:1;stroke-width:0.00879265;stroke-miterlimit:4;stroke-dasharray:none" />
      </g>
      <circle
         id="circle4141"
         r="1.8"
         cy="24.4"
         cx="30"
         style="fill:#507282"
         inkscape:export-xdpi="90"
         inkscape:export-ydpi="90" />
      <circle
         id="circle4143"
         r="1.8"
         cy="35.599998"
         cx="30"
         style="fill:#507282"
         inkscape:export-xdpi="90"
         inkscape:export-ydpi="90" />
      <g
         id="g4145"
         inkscape:export-xdpi="90"
         inkscape:export-ydpi="90">
        <path
           id="path4147"
           d="m 14.9,38.5 c 0,0 -0.3,0.1 -0.8,0.4 -0.5,0.3 -1.2,0.6 -2.2,1.1 -0.9,0.4 -2.1,0.9 -3.5,1.4 -1.4,0.5 -2.9,1 -4.8,1.2 -0.5,0 -1,0 -1.5,-0.1 C 1.8,42.4 1.5,42.3 1.3,42.1 1.1,42 1,41.9 0.9,41.7 L 0.7,41.5 0.6,41.3 c -0.3,-0.8 -0.1,-1.4 0.1,-1.9 0.2,-0.5 0.5,-1 0.8,-1.5 1.2,-1.8 2.8,-3.3 4.5,-4.8 3.4,-3 7.4,-5.6 11.5,-8.1 2.1,-1.2 4.2,-2.3 6.3,-3.3 2.1,-1 4.3,-1.9 6.4,-2.7 2.1,-0.8 4.2,-1.4 6.3,-1.7 1.1,-0.1 2.1,-0.2 3.3,0.1 0.3,0.1 0.6,0.2 0.8,0.5 0.1,0.1 0.2,0.3 0.3,0.4 l 0,0 c 0,-0.1 0.1,0.1 0.1,0.1 l 0,0 0,0.1 0.1,0.2 c 0.2,0.8 -0.1,1.3 -0.2,1.8 -0.4,0.9 -1,1.6 -1.5,2.2 -0.6,0.6 -1.1,1.2 -1.7,1.6 -1.1,1 -2.1,1.7 -2.9,2.4 -0.8,0.6 -1.5,1.1 -2,1.4 -0.5,0.3 -0.7,0.5 -0.7,0.5 0,0 0.9,-0.8 2.4,-2.1 0.8,-0.7 1.7,-1.6 2.6,-2.6 0.5,-0.5 1,-1.1 1.4,-1.7 0.5,-0.6 0.9,-1.3 1.2,-2 0.1,-0.4 0.2,-0.7 0.1,-0.9 l 0,-0.3 0,-0.1 0,0 c 0,0 0.1,0.2 0,0.1 l 0,0 c 0,0 -0.1,-0.1 -0.1,-0.1 -0.1,-0.1 -0.2,-0.1 -0.4,-0.2 -0.7,-0.2 -1.7,-0.1 -2.6,0.1 -1.9,0.4 -3.9,1.1 -5.9,1.9 -2,0.8 -4.1,1.8 -6.1,2.8 -2.1,1 -4.1,2.1 -6.1,3.3 -2,1.2 -4,2.4 -5.9,3.7 -1.9,1.3 -3.7,2.6 -5.4,4 C 5.6,35.9 4,37.3 2.9,38.8 2.6,39.2 2.4,39.6 2.2,39.9 2,40.3 2,40.7 2,40.8 2.1,41 2.3,41.2 2.6,41.3 3,41.4 3.4,41.4 3.8,41.4 5.5,41.4 7.1,41 8.4,40.7 9.8,40.3 11,40 12,39.6 c 1.8,-0.7 2.9,-1.1 2.9,-1.1 z"
           inkscape:connector-curvature="0"
           style="fill:#f8991d" />
      </g>
      <g
         inkscape:export-ydpi="90"
         inkscape:export-xdpi="90"
         id="g4149"
         style="stroke:#000000;stroke-opacity:1;stroke-width:0.00879265;stroke-miterlimit:4;stroke-dasharray:none">
        <path
           id="path4151"
           d="m 14.4,21.1 c 0,0 -0.6,-0.2 -1.6,-0.6 -1.1,-0.4 -2.6,-1 -4.7,-1.5 -1,-0.3 -2.2,-0.6 -3.4,-0.7 -0.6,-0.1 -1.3,-0.1 -1.9,0 -0.6,0.1 -1.3,0.3 -1.3,0.9 -0.1,0.5 0.2,1.2 0.6,1.8 0.4,0.6 0.9,1.2 1.5,1.8 1.1,1 2.4,2.2 3.8,3.3 2.8,2.2 6.1,4.4 9.6,6.5 3.6,2.1 7.5,4.1 11.6,5.8 2.1,0.9 4.2,1.6 6.4,2.2 1.1,0.3 2.2,0.5 3.2,0.4 0.5,0 1,-0.1 1.2,-0.3 0.1,-0.1 0.1,-0.1 0,-0.6 -0.3,-0.8 -1.1,-1.7 -1.9,-2.5 -0.8,-0.8 -1.7,-1.6 -2.6,-2.4 -1.8,-1.5 -3.7,-3 -5.7,-4.4 l -2.9,-2.2 c -1,-0.8 -1.9,-1.5 -2.9,-2.4 -0.9,-0.8 -1.8,-1.7 -2.6,-2.6 -0.8,-1 -1.6,-1.9 -2.1,-3.3 -0.1,-0.4 -0.2,-0.8 -0.1,-1.3 0,-0.3 0.1,-0.5 0.3,-0.8 l 0.1,-0.1 0.2,-0.2 c 0.1,-0.1 0.2,-0.2 0.3,-0.3 0.8,-0.6 1.6,-0.6 2.2,-0.6 1.3,0 2.5,0.2 3.7,0.5 2.3,0.6 4.5,1.4 6.6,2.3 4.2,1.8 8.1,4 11.7,6.2 3.6,2.2 6.8,4.5 9.6,6.9 1.4,1.2 2.7,2.4 3.8,3.7 0.6,0.6 1.1,1.3 1.5,2 0.4,0.7 0.8,1.5 0.6,2.4 0,0.1 -0.1,0.2 -0.1,0.3 l 0,0.1 -0.1,0.2 -0.1,0.1 c -0.2,0.2 -0.4,0.3 -0.6,0.4 -0.4,0.2 -0.8,0.2 -1.1,0.3 -0.7,0.1 -1.4,0 -2.1,-0.1 -1.3,-0.2 -2.4,-0.5 -3.4,-0.9 -2,-0.7 -3.5,-1.3 -4.6,-1.8 -1,-0.5 -1.6,-0.7 -1.6,-0.7 0,0 0.6,0.2 1.6,0.6 1.1,0.4 2.6,1 4.7,1.5 1,0.3 2.2,0.6 3.4,0.7 0.6,0.1 1.3,0.1 1.9,0 0.3,0 0.6,-0.1 0.9,-0.3 0.1,-0.1 0.2,-0.2 0.3,-0.2 0,0 0,-0.1 0.1,-0.1 0,0 0,-0.1 0,0 l 0,0 c 0,-0.1 0,-0.1 0.1,-0.2 0.1,-0.5 -0.2,-1.2 -0.6,-1.8 C 57.5,38.5 57,37.9 56.4,37.3 55.3,36.1 54,35 52.6,33.9 49.8,31.7 46.5,29.5 43,27.4 39.4,25.3 35.5,23.3 31.4,21.6 29.3,20.7 27.2,20 25,19.4 23.9,19.1 22.8,18.9 21.8,19 c -0.5,0 -1,0.1 -1.2,0.3 l 0,0 c 0,0 0,0 0,0 0,0 0,0.1 -0.1,0.1 0,0 0,0 0,0 0,0.1 0,0.3 0.1,0.5 0.3,0.8 1,1.8 1.8,2.6 0.8,0.9 1.6,1.7 2.5,2.4 0.9,0.8 1.8,1.6 2.7,2.2 l 2.9,2.2 c 1.9,1.5 3.9,3 5.7,4.6 0.9,0.8 1.8,1.6 2.7,2.5 0.8,0.9 1.7,1.8 2.3,3.2 0.1,0.4 0.2,0.8 0.1,1.3 0,0.1 -0.1,0.4 -0.1,0.4 l 0,0.1 0,0.1 c 0,0 -0.1,0.2 -0.1,0.2 -0.1,0.2 -0.3,0.4 -0.5,0.6 -0.8,0.6 -1.6,0.6 -2.2,0.6 -1.3,0 -2.5,-0.2 -3.7,-0.5 C 32.4,41.8 30.2,41 28.1,40.1 23.9,38.3 20,36.1 16.4,33.9 12.8,31.7 9.6,29.4 6.8,27 5.4,25.8 4.1,24.6 3,23.3 2.4,22.7 1.9,22 1.5,21.3 1.1,20.6 0.7,19.8 0.9,18.9 1,18.4 1.4,18 1.8,17.9 c 0.4,-0.2 0.8,-0.2 1.1,-0.3 0.7,-0.1 1.4,0 2.1,0.1 1.3,0.2 2.4,0.5 3.4,0.9 2,0.7 3.5,1.3 4.6,1.8 0.9,0.4 1.4,0.7 1.4,0.7 z"
           inkscape:connector-curvature="0"
           style="fill:#f7941e;stroke:#000000;stroke-opacity:1;stroke-width:0.00879265;stroke-miterlimit:4;stroke-dasharray:none" />
      </g>
    </g>
  </g>
</svg>
