<?xml version="1.0" encoding="utf-8"?>
<!-- Generator: Adobe Illustrator 18.1.1, SVG Export Plug-In . SVG Version: 6.00 Build 0)  -->
<!--
/*
 *
 * Copyright 2006-2017 CIRDLES.org
 *
 *  Licensed under the Apache License, Version 2.0 (the "License");
 *  you may not use this file except in compliance with the License.
 *  You may obtain a copy of the License at
 *
 *      http://www.apache.org/licenses/LICENSE-2.0
 *
 *  Unless required by applicable law or agreed to in writing, software
 *  distributed under the License is distributed on an "AS IS" BASIS,
 *  WITHOUT WARRANTIES OR CONDITIONS OF ANY KIND, either express or implied.
 *  See the License for the specific language governing permissions and
 *  limitations under the License.
 */
-->
<svg version="1.1" xmlns="http://www.w3.org/2000/svg" xmlns:xlink="http://www.w3.org/1999/xlink" x="0px" y="0px"
	 viewBox="0 0 60 60" enable-background="new 0 0 60 60" xml:space="preserve">
<g id="Layer_1">
	<rect x="0" y="36.1" fill="none" width="59.9" height="13.4"/>
	<text transform="matrix(1 0 0 1 3.9935 44.6515)" fill="#9C9B9C" font-family="'ArialMT'" font-size="12">CIRDLES</text>
</g>
<g id="Layer_2">
	<g>
		<g>
			<path fill="#F8991D" d="M43.4,15.8c0,0,0.2-0.1,0.7-0.4c0.4-0.2,1.1-0.6,1.9-0.9c0.8-0.4,1.9-0.8,3.1-1.3c1.2-0.4,2.6-0.9,4.3-1
				c0.4,0,0.9,0,1.4,0.1c0.3,0.1,0.5,0.1,0.8,0.3c0.1,0.1,0.3,0.2,0.4,0.3l0.2,0.2l0.1,0.2c0.3,0.7,0.1,1.3-0.1,1.8
				c-0.2,0.5-0.4,0.9-0.7,1.3c-1.1,1.6-2.5,3-4,4.3c-3,2.6-6.5,5-10.1,7.2c-1.8,1.1-3.7,2-5.6,3c-1.9,0.9-3.8,1.7-5.6,2.4
				c-1.9,0.7-3.7,1.2-5.6,1.5c-0.9,0.1-1.9,0.2-2.9-0.1c-0.3-0.1-0.5-0.2-0.8-0.5c-0.1-0.1-0.2-0.2-0.3-0.4l0,0
				c0,0.1-0.1-0.1-0.1-0.1l0,0l0-0.1l0-0.1c-0.2-0.7,0-1.2,0.2-1.6c0.4-0.8,0.9-1.4,1.4-2c0.5-0.5,1-1,1.5-1.4
				c1-0.9,1.9-1.5,2.6-2.1c0.7-0.6,1.3-0.9,1.8-1.2c0.4-0.3,0.6-0.4,0.6-0.4s-0.8,0.7-2.1,1.9c-0.7,0.6-1.5,1.4-2.3,2.3
				c-0.4,0.5-0.9,1-1.3,1.5c-0.4,0.6-0.8,1.2-1.1,1.8c-0.1,0.3-0.1,0.6-0.1,0.7l0.1,0.1l0,0.1l0,0c0,0-0.1-0.2,0-0.1l0,0
				c0,0,0,0.1,0.1,0.1c0.1,0.1,0.2,0.1,0.3,0.1c0.6,0.1,1.5,0.1,2.3-0.1c1.7-0.3,3.4-1,5.2-1.7c1.8-0.7,3.6-1.6,5.4-2.5
				c1.8-0.9,3.6-1.9,5.4-2.9c1.8-1,3.5-2.1,5.2-3.3c1.7-1.1,3.3-2.3,4.8-3.5c1.5-1.2,2.9-2.5,3.9-3.8c0.3-0.3,0.5-0.7,0.6-1
				c0.1-0.3,0.2-0.7,0.2-0.7c-0.1-0.2-0.2-0.3-0.5-0.4c-0.3-0.1-0.7-0.1-1-0.1c-1.5,0-2.9,0.3-4.1,0.6c-1.2,0.3-2.3,0.6-3.1,0.9
				C44.4,15.4,43.4,15.8,43.4,15.8z"/>
		</g>
		<circle fill="#507282" cx="30" cy="18.4" r="1.5"/>
		<circle fill="#507282" cx="30" cy="28.2" r="1.5"/>
		<g>
			<path fill="#F8991D" d="M16.6,30.8c0,0-0.2,0.1-0.7,0.4c-0.4,0.2-1.1,0.6-1.9,0.9c-0.8,0.4-1.9,0.8-3.1,1.3
				c-1.2,0.4-2.6,0.9-4.3,1c-0.4,0-0.9,0-1.4-0.1c-0.3-0.1-0.5-0.1-0.8-0.3c-0.1-0.1-0.3-0.2-0.4-0.3L4,33.5l-0.1-0.2
				C3.6,32.5,3.8,32,4,31.5c0.2-0.5,0.4-0.9,0.7-1.3c1.1-1.6,2.5-3,4-4.3c3-2.6,6.5-5,10.1-7.2c1.8-1.1,3.7-2,5.6-3
				c1.9-0.9,3.8-1.7,5.6-2.4c1.9-0.7,3.7-1.2,5.6-1.5c0.9-0.1,1.9-0.2,2.9,0.1c0.3,0.1,0.5,0.2,0.8,0.5c0.1,0.1,0.2,0.2,0.3,0.4l0,0
				c0-0.1,0.1,0.1,0.1,0.1l0,0l0,0.1l0,0.1c0.2,0.7,0,1.2-0.2,1.6c-0.4,0.8-0.9,1.4-1.4,2c-0.5,0.5-1,1-1.5,1.4
				c-1,0.9-1.9,1.5-2.6,2.1c-0.7,0.6-1.3,0.9-1.8,1.2C32,21.8,31.7,22,31.7,22s0.8-0.7,2.1-1.9c0.7-0.6,1.5-1.4,2.3-2.3
				c0.4-0.5,0.9-1,1.3-1.5c0.4-0.6,0.8-1.2,1.1-1.8c0.1-0.3,0.1-0.6,0.1-0.7l-0.1-0.1l0-0.1l0,0c0,0,0.1,0.2,0,0.1l0,0
				c0,0,0-0.1-0.1-0.1c-0.1-0.1-0.2-0.1-0.3-0.1c-0.6-0.1-1.5-0.1-2.3,0.1c-1.7,0.3-3.4,1-5.2,1.7c-1.8,0.7-3.6,1.6-5.4,2.5
				c-1.8,0.9-3.6,1.9-5.4,2.9c-1.8,1-3.5,2.1-5.2,3.3c-1.7,1.1-3.3,2.3-4.8,3.5c-1.5,1.2-2.9,2.5-3.9,3.8c-0.3,0.3-0.5,0.7-0.6,1
				c-0.1,0.3-0.2,0.7-0.2,0.7c0.1,0.2,0.2,0.3,0.5,0.4c0.3,0.1,0.7,0.1,1,0.1c1.5,0,2.9-0.3,4.1-0.6c1.2-0.3,2.3-0.6,3.1-0.9
				C15.6,31.2,16.6,30.8,16.6,30.8z"/>
		</g>
		<g>
			<path fill="#F7941E" d="M16.2,15.4c0,0-0.5-0.2-1.4-0.6c-0.9-0.4-2.3-0.8-4.1-1.3c-0.9-0.2-1.9-0.5-3-0.6c-0.5-0.1-1.1-0.1-1.7,0
				c-0.6,0.1-1.1,0.3-1.2,0.8c-0.1,0.4,0.2,1,0.6,1.6c0.4,0.5,0.8,1.1,1.3,1.6c1,1,2.1,2,3.4,3c2.5,2,5.4,3.9,8.5,5.7
				c3.2,1.8,6.6,3.6,10.2,5.1c1.8,0.7,3.7,1.4,5.6,1.9c1,0.2,1.9,0.4,2.8,0.4c0.4,0,0.8-0.1,0.9-0.2c0-0.1,0.1,0,0-0.3
				c-0.2-0.7-1-1.5-1.6-2.2c-0.7-0.7-1.5-1.4-2.3-2.1c-1.6-1.4-3.3-2.6-5-3.9l-2.6-1.9c-0.9-0.7-1.7-1.4-2.5-2.1
				c-0.8-0.7-1.6-1.5-2.3-2.3c-0.7-0.9-1.5-1.7-1.9-3c-0.1-0.3-0.2-0.7-0.1-1.2c0-0.1,0-0.2,0.1-0.4c0-0.1,0-0.1,0.1-0.2l0-0.1
				c0,0,0.1-0.2,0.1-0.2l0.1-0.2c0.1-0.1,0.2-0.2,0.3-0.3c0.8-0.6,1.5-0.6,2.1-0.6c1.2,0,2.3,0.2,3.3,0.5c2.1,0.5,4,1.3,5.9,2.1
				c3.7,1.6,7.2,3.5,10.3,5.5c3.2,2,6,4,8.5,6.1C51.9,27,53,28,54,29.2c0.5,0.6,0.9,1.2,1.3,1.8c0.3,0.6,0.7,1.3,0.6,2.2
				c0,0.2-0.2,0.5-0.3,0.6c-0.2,0.2-0.3,0.3-0.5,0.4c-0.3,0.2-0.7,0.2-1,0.3c-0.7,0-1.3,0-1.8-0.1c-1.1-0.2-2.1-0.5-3-0.8
				c-1.8-0.6-3.1-1.2-4-1.6c-0.9-0.4-1.4-0.7-1.4-0.7s0.5,0.2,1.4,0.6c0.9,0.4,2.3,0.8,4.1,1.3c0.9,0.2,1.9,0.5,3,0.6
				c0.5,0.1,1.1,0.1,1.7,0c0.3,0,0.6-0.1,0.8-0.2c0.1-0.1,0.2-0.1,0.2-0.2c0,0,0-0.1,0.1-0.1c0,0,0-0.1,0,0l0,0c0,0,0-0.1,0-0.1
				c0.1-0.4-0.2-1-0.6-1.6c-0.4-0.5-0.8-1.1-1.3-1.6c-1-1-2.1-2-3.4-3c-2.5-2-5.4-3.9-8.5-5.7c-3.2-1.8-6.6-3.6-10.2-5.1
				c-1.8-0.7-3.7-1.4-5.6-1.9c-1-0.2-1.9-0.4-2.8-0.4c-0.4,0-0.9,0.1-0.9,0.2c0,0,0,0,0-0.1L21.7,14c-0.1,0.1,0.1-0.1,0-0.1l0,0l0,0
				c0,0,0,0,0,0c0,0,0,0.2,0.1,0.3c0.2,0.7,0.9,1.5,1.5,2.3c0.7,0.7,1.4,1.5,2.2,2.1c0.8,0.7,1.6,1.4,2.4,2l2.6,1.9
				c1.7,1.3,3.4,2.6,5.1,4c0.8,0.7,1.6,1.4,2.4,2.2c0.8,0.8,1.5,1.6,2.1,2.9c0.1,0.3,0.2,0.7,0.1,1.3c0,0.1-0.1,0.3-0.1,0.4l0,0.1
				l0,0c0,0-0.1,0.2-0.1,0.2c-0.1,0.2-0.3,0.4-0.5,0.5c-0.8,0.5-1.5,0.6-2.1,0.6c-1.2,0-2.3-0.2-3.3-0.5c-2.1-0.5-4-1.3-5.9-2.1
				c-3.7-1.6-7.2-3.5-10.3-5.5c-3.2-2-6-4-8.5-6.1C8.1,19.6,7,18.5,6,17.4c-0.5-0.6-0.9-1.2-1.3-1.8C4.4,15,4,14.3,4.2,13.4
				c0-0.1,0.1-0.2,0.1-0.3l0-0.1c0-0.1,0-0.1,0.1-0.1c0,0,0.1-0.1,0.1-0.1c0.1-0.2,0.3-0.3,0.5-0.4c0.3-0.2,0.7-0.2,1-0.3
				c0.7,0,1.3,0,1.8,0.1c1.1,0.2,2.1,0.5,3,0.8c1.8,0.6,3.1,1.2,4,1.6C15.8,15.2,16.2,15.4,16.2,15.4z"/>
		</g>
	</g>
</g>
</svg>
