<?xml version="1.0" encoding="UTF-8" standalone="no"?>
<!-- Generator: Adobe Illustrator 18.1.1, SVG Export Plug-In . SVG Version: 6.00 Build 0)  -->

<!--
/*
 *
 * Copyright 2006-2017 CIRDLES.org
 *
 *  Licensed under the Apache License, Version 2.0 (the "License");
 *  you may not use this file except in compliance with the License.
 *  You may obtain a copy of the License at
 *
 *      http://www.apache.org/licenses/LICENSE-2.0
 *
 *  Unless required by applicable law or agreed to in writing, software
 *  distributed under the License is distributed on an "AS IS" BASIS,
 *  WITHOUT WARRANTIES OR CONDITIONS OF ANY KIND, either express or implied.
 *  See the License for the specific language governing permissions and
 *  limitations under the License.
 */
-->

<svg
   xmlns:dc="http://purl.org/dc/elements/1.1/"
   xmlns:cc="http://creativecommons.org/ns#"
   xmlns:rdf="http://www.w3.org/1999/02/22-rdf-syntax-ns#"
   xmlns:svg="http://www.w3.org/2000/svg"
   xmlns="http://www.w3.org/2000/svg"
   xmlns:sodipodi="http://sodipodi.sourceforge.net/DTD/sodipodi-0.dtd"
   xmlns:inkscape="http://www.inkscape.org/namespaces/inkscape"
   version="1.1"
   id="Layer_1"
   x="0px"
   y="0px"
   viewBox="0 0 60 60"
   enable-background="new 0 0 60 60"
   xml:space="preserve"
   inkscape:version="0.91 r13725"
   sodipodi:docname="cirdles-logo.svg"><metadata
     id="metadata4157"><rdf:RDF><cc:Work
         rdf:about=""><dc:format>image/svg+xml</dc:format><dc:type
           rdf:resource="http://purl.org/dc/dcmitype/StillImage" /></cc:Work></rdf:RDF></metadata><defs
     id="defs4155" /><sodipodi:namedview
     pagecolor="#ffffff"
     bordercolor="#666666"
     borderopacity="1"
     objecttolerance="10"
     gridtolerance="10"
     guidetolerance="10"
     inkscape:pageopacity="0"
     inkscape:pageshadow="2"
     inkscape:window-width="1536"
     inkscape:window-height="801"
     id="namedview4153"
     showgrid="false"
     inkscape:zoom="10.316667"
     inkscape:cx="30"
     inkscape:cy="37.754443"
     inkscape:window-x="-8"
     inkscape:window-y="-8"
     inkscape:window-maximized="1"
     inkscape:current-layer="Layer_1" /><g
     id="g4137"><path
       fill="#F8991D"
       d="M45.1,21.5c0,0,0.3-0.1,0.8-0.4c0.5-0.3,1.2-0.6,2.2-1.1c0.9-0.4,2.1-0.9,3.5-1.4c1.4-0.5,2.9-1,4.8-1.2   c0.5,0,1,0,1.5,0.1c0.3,0.1,0.6,0.2,0.8,0.4c0.1,0.1,0.3,0.2,0.4,0.3l0.2,0.2l0.1,0.2c0.3,0.8,0.1,1.4-0.1,1.9   c-0.2,0.5-0.5,1-0.8,1.5c-1.2,1.8-2.8,3.3-4.5,4.8c-3.4,3-7.4,5.6-11.5,8.1c-2.1,1.2-4.2,2.3-6.3,3.3c-2.1,1-4.3,1.9-6.4,2.7   c-2.1,0.8-4.2,1.4-6.3,1.7c-1.1,0.1-2.1,0.2-3.3-0.1c-0.3-0.1-0.6-0.2-0.8-0.5c-0.1-0.1-0.2-0.3-0.3-0.4l0,0c0,0.1-0.1-0.1-0.1-0.1   l0,0l0-0.1L19,41.3c-0.2-0.8,0.1-1.3,0.2-1.8c0.4-0.9,1-1.6,1.5-2.2c0.6-0.6,1.1-1.2,1.7-1.6c1.1-1,2.1-1.7,2.9-2.4   c0.8-0.6,1.5-1.1,2-1.4c0.5-0.3,0.7-0.5,0.7-0.5s-0.9,0.8-2.4,2.1c-0.8,0.7-1.7,1.6-2.6,2.6c-0.5,0.5-1,1.1-1.4,1.7   c-0.5,0.6-0.9,1.3-1.2,2c-0.1,0.4-0.2,0.7-0.1,0.9l0.1,0.2l0,0.1l0,0c0,0-0.1-0.2,0-0.1l0,0c0,0,0.1,0.1,0.1,0.1   c0.1,0.1,0.2,0.1,0.4,0.2c0.7,0.2,1.7,0.1,2.6-0.1c1.9-0.4,3.9-1.1,5.9-1.9c2-0.8,4.1-1.8,6.1-2.8c2.1-1,4.1-2.1,6.1-3.3   c2-1.2,4-2.4,5.9-3.7c1.9-1.3,3.7-2.6,5.4-4c1.7-1.4,3.3-2.8,4.4-4.3c0.3-0.4,0.5-0.8,0.7-1.1c0.2-0.4,0.2-0.8,0.2-0.9   c-0.1-0.2-0.3-0.4-0.6-0.5c-0.4-0.1-0.8-0.1-1.2-0.1c-1.7,0-3.3,0.4-4.6,0.7c-1.4,0.4-2.6,0.7-3.6,1.1   C46.2,21.1,45.1,21.5,45.1,21.5z"
       id="path4139" /></g><circle
     fill="#507282"
     cx="30"
     cy="24.4"
     r="1.8"
     id="circle4141" /><circle
     fill="#507282"
     cx="30"
     cy="35.6"
     r="1.8"
     id="circle4143" /><g
     id="g4145"><path
       fill="#F8991D"
       d="M14.9,38.5c0,0-0.3,0.1-0.8,0.4c-0.5,0.3-1.2,0.6-2.2,1.1c-0.9,0.4-2.1,0.9-3.5,1.4c-1.4,0.5-2.9,1-4.8,1.2   c-0.5,0-1,0-1.5-0.1c-0.3-0.1-0.6-0.2-0.8-0.4C1.1,42,1,41.9,0.9,41.7l-0.2-0.2l-0.1-0.2c-0.3-0.8-0.1-1.4,0.1-1.9   c0.2-0.5,0.5-1,0.8-1.5c1.2-1.8,2.8-3.3,4.5-4.8c3.4-3,7.4-5.6,11.5-8.1c2.1-1.2,4.2-2.3,6.3-3.3c2.1-1,4.3-1.9,6.4-2.7   c2.1-0.8,4.2-1.4,6.3-1.7c1.1-0.1,2.1-0.2,3.3,0.1c0.3,0.1,0.6,0.2,0.8,0.5c0.1,0.1,0.2,0.3,0.3,0.4l0,0c0-0.1,0.1,0.1,0.1,0.1l0,0   l0,0.1l0.1,0.2c0.2,0.8-0.1,1.3-0.2,1.8c-0.4,0.9-1,1.6-1.5,2.2c-0.6,0.6-1.1,1.2-1.7,1.6c-1.1,1-2.1,1.7-2.9,2.4   c-0.8,0.6-1.5,1.1-2,1.4c-0.5,0.3-0.7,0.5-0.7,0.5s0.9-0.8,2.4-2.1c0.8-0.7,1.7-1.6,2.6-2.6c0.5-0.5,1-1.1,1.4-1.7   c0.5-0.6,0.9-1.3,1.2-2c0.1-0.4,0.2-0.7,0.1-0.9L39.8,19l0-0.1l0,0c0,0,0.1,0.2,0,0.1l0,0c0,0-0.1-0.1-0.1-0.1   c-0.1-0.1-0.2-0.1-0.4-0.2c-0.7-0.2-1.7-0.1-2.6,0.1c-1.9,0.4-3.9,1.1-5.9,1.9c-2,0.8-4.1,1.8-6.1,2.8c-2.1,1-4.1,2.1-6.1,3.3   c-2,1.2-4,2.4-5.9,3.7c-1.9,1.3-3.7,2.6-5.4,4c-1.7,1.4-3.3,2.8-4.4,4.3c-0.3,0.4-0.5,0.8-0.7,1.1c-0.2,0.4-0.2,0.8-0.2,0.9   c0.1,0.2,0.3,0.4,0.6,0.5c0.4,0.1,0.8,0.1,1.2,0.1c1.7,0,3.3-0.4,4.6-0.7c1.4-0.4,2.6-0.7,3.6-1.1C13.8,38.9,14.9,38.5,14.9,38.5z"
       id="path4147" /></g><g
     id="g4149"
     inkscape:export-xdpi="90"
     inkscape:export-ydpi="90"><path
       fill="#F7941E"
       d="M14.4,21.1c0,0-0.6-0.2-1.6-0.6c-1.1-0.4-2.6-1-4.7-1.5c-1-0.3-2.2-0.6-3.4-0.7c-0.6-0.1-1.3-0.1-1.9,0   c-0.6,0.1-1.3,0.3-1.3,0.9c-0.1,0.5,0.2,1.2,0.6,1.8c0.4,0.6,0.9,1.2,1.5,1.8C4.7,23.8,6,25,7.4,26.1c2.8,2.2,6.1,4.4,9.6,6.5   c3.6,2.1,7.5,4.1,11.6,5.8c2.1,0.9,4.2,1.6,6.4,2.2c1.1,0.3,2.2,0.5,3.2,0.4c0.5,0,1-0.1,1.2-0.3c0.1-0.1,0.1-0.1,0-0.6   c-0.3-0.8-1.1-1.7-1.9-2.5c-0.8-0.8-1.7-1.6-2.6-2.4c-1.8-1.5-3.7-3-5.7-4.4l-2.9-2.2c-1-0.8-1.9-1.5-2.9-2.4   c-0.9-0.8-1.8-1.7-2.6-2.6c-0.8-1-1.6-1.9-2.1-3.3c-0.1-0.4-0.2-0.8-0.1-1.3c0-0.3,0.1-0.5,0.3-0.8l0.1-0.1l0.2-0.2   c0.1-0.1,0.2-0.2,0.3-0.3c0.8-0.6,1.6-0.6,2.2-0.6c1.3,0,2.5,0.2,3.7,0.5c2.3,0.6,4.5,1.4,6.6,2.3c4.2,1.8,8.1,4,11.7,6.2   c3.6,2.2,6.8,4.5,9.6,6.9c1.4,1.2,2.7,2.4,3.8,3.7c0.6,0.6,1.1,1.3,1.5,2c0.4,0.7,0.8,1.5,0.6,2.4c0,0.1-0.1,0.2-0.1,0.3l0,0.1   L59,41.6l-0.1,0.1c-0.2,0.2-0.4,0.3-0.6,0.4c-0.4,0.2-0.8,0.2-1.1,0.3c-0.7,0.1-1.4,0-2.1-0.1c-1.3-0.2-2.4-0.5-3.4-0.9   c-2-0.7-3.5-1.3-4.6-1.8c-1-0.5-1.6-0.7-1.6-0.7s0.6,0.2,1.6,0.6c1.1,0.4,2.6,1,4.7,1.5c1,0.3,2.2,0.6,3.4,0.7   c0.6,0.1,1.3,0.1,1.9,0c0.3,0,0.6-0.1,0.9-0.3c0.1-0.1,0.2-0.2,0.3-0.2c0,0,0-0.1,0.1-0.1c0,0,0-0.1,0,0l0,0c0-0.1,0-0.1,0.1-0.2   c0.1-0.5-0.2-1.2-0.6-1.8c-0.4-0.6-0.9-1.2-1.5-1.8c-1.1-1.2-2.4-2.3-3.8-3.4c-2.8-2.2-6.1-4.4-9.6-6.5c-3.6-2.1-7.5-4.1-11.6-5.8   c-2.1-0.9-4.2-1.6-6.4-2.2c-1.1-0.3-2.2-0.5-3.2-0.4c-0.5,0-1,0.1-1.2,0.3l0,0c0,0,0,0,0,0c0,0,0,0.1-0.1,0.1c0,0,0,0,0,0   c0,0.1,0,0.3,0.1,0.5c0.3,0.8,1,1.8,1.8,2.6c0.8,0.9,1.6,1.7,2.5,2.4c0.9,0.8,1.8,1.6,2.7,2.2l2.9,2.2c1.9,1.5,3.9,3,5.7,4.6   c0.9,0.8,1.8,1.6,2.7,2.5c0.8,0.9,1.7,1.8,2.3,3.2c0.1,0.4,0.2,0.8,0.1,1.3c0,0.1-0.1,0.4-0.1,0.4l0,0.1l0,0.1c0,0-0.1,0.2-0.1,0.2   c-0.1,0.2-0.3,0.4-0.5,0.6c-0.8,0.6-1.6,0.6-2.2,0.6c-1.3,0-2.5-0.2-3.7-0.5c-2.3-0.6-4.5-1.4-6.6-2.3c-4.2-1.8-8.1-4-11.7-6.2   c-3.6-2.2-6.8-4.5-9.6-6.9c-1.4-1.2-2.7-2.4-3.8-3.7c-0.6-0.6-1.1-1.3-1.5-2c-0.4-0.7-0.8-1.5-0.6-2.4c0.1-0.5,0.5-0.9,0.9-1   c0.4-0.2,0.8-0.2,1.1-0.3c0.7-0.1,1.4,0,2.1,0.1c1.3,0.2,2.4,0.5,3.4,0.9c2,0.7,3.5,1.3,4.6,1.8C13.9,20.8,14.4,21.1,14.4,21.1z"
       id="path4151" /></g></svg>