<?xml version="1.0" encoding="UTF-8" standalone="no"?>
<!-- Created with Inkscape (http://www.inkscape.org/) -->

<!--
/*
 *
 * Copyright 2006-2017 CIRDLES.org
 *
 *  Licensed under the Apache License, Version 2.0 (the "License");
 *  you may not use this file except in compliance with the License.
 *  You may obtain a copy of the License at
 *
 *      http://www.apache.org/licenses/LICENSE-2.0
 *
 *  Unless required by applicable law or agreed to in writing, software
 *  distributed under the License is distributed on an "AS IS" BASIS,
 *  WITHOUT WARRANTIES OR CONDITIONS OF ANY KIND, either express or implied.
 *  See the License for the specific language governing permissions and
 *  limitations under the License.
 */
-->

<svg
   xmlns:dc="http://purl.org/dc/elements/1.1/"
   xmlns:cc="http://creativecommons.org/ns#"
   xmlns:rdf="http://www.w3.org/1999/02/22-rdf-syntax-ns#"
   xmlns:svg="http://www.w3.org/2000/svg"
   xmlns="http://www.w3.org/2000/svg"
   xmlns:sodipodi="http://sodipodi.sourceforge.net/DTD/sodipodi-0.dtd"
   xmlns:inkscape="http://www.inkscape.org/namespaces/inkscape"
   width="300"
   height="300"
   viewBox="0 0 300.00001 300.00001"
   id="svg4282"
   version="1.1"
   inkscape:version="0.92.2 (5c3e80d, 2017-08-06)"
   sodipodi:docname="TopsoilLogo.svg"
   inkscape:export-filename="C:\Users\baldy\Work\CIRDLES\DRAKE\logos\Topsoil\TopsoilLogo.png"
   inkscape:export-xdpi="90"
   inkscape:export-ydpi="90">
  <defs
     id="defs4284">
    <filter
       id="filter4342"
       style="color-interpolation-filters:sRGB"
       inkscape:menu-tooltip="Basic specular bevel to use for building textures"
       inkscape:menu="Bevels"
       inkscape:label="Combined Lighting">
      <feGaussianBlur
         id="feGaussianBlur4344"
         result="result0"
         in="SourceGraphic"
         stdDeviation="11.300000000000001" />
      <feDiffuseLighting
         id="feDiffuseLighting4346"
         result="result5"
         surfaceScale="4"
         diffuseConstant="1"
         lighting-color="#ffffff">
        <feDistantLight
           id="feDistantLight4348"
           azimuth="235"
           elevation="45" />
      </feDiffuseLighting>
      <feComposite
         id="feComposite4350"
         operator="arithmetic"
         result="fbSourceGraphic"
         in="result5"
         in2="SourceGraphic"
         k1="1.4"
         k2="0"
         k3="0"
         k4="0" />
      <feGaussianBlur
         id="feGaussianBlur4352"
         stdDeviation="6"
         in="fbSourceGraphic"
         result="result0" />
      <feSpecularLighting
         id="feSpecularLighting4354"
         in="result0"
         result="result1"
         lighting-color="#ffffff"
         surfaceScale="4"
         specularConstant="1"
         specularExponent="25">
        <feDistantLight
           id="feDistantLight4356"
           elevation="45"
           azimuth="235" />
      </feSpecularLighting>
      <feComposite
         id="feComposite4358"
         result="result4"
         in2="result1"
         in="fbSourceGraphic"
         operator="arithmetic"
         k2="1"
         k3="1"
         k1="0"
         k4="0" />
      <feComposite
         id="feComposite4360"
         in="result4"
         in2="SourceGraphic"
         result="result2"
         operator="in" />
    </filter>
    <filter
       id="filter4654"
       inkscape:label="Diffuse Light"
       style="color-interpolation-filters:sRGB">
      <feGaussianBlur
         id="feGaussianBlur4656"
         result="blur"
         stdDeviation="6"
         in="SourceGraphic" />
      <feDiffuseLighting
         id="feDiffuseLighting4658"
         result="diffuse"
         lighting-color="#ffffff"
         surfaceScale="10"
         diffuseConstant="1">
        <feDistantLight
           id="feDistantLight4660"
           azimuth="235"
           elevation="25" />
      </feDiffuseLighting>
      <feComposite
         id="feComposite4662"
         result="composite1"
         k1="1"
         operator="arithmetic"
         in2="diffuse"
         in="diffuse"
         k2="0"
         k3="0"
         k4="0" />
      <feComposite
         id="feComposite4664"
         result="composite2"
         k3="1"
         operator="arithmetic"
         k1="1"
         in2="SourceGraphic"
         in="composite1"
         k2="0"
         k4="0" />
    </filter>
    <filter
       id="filter4858"
       inkscape:label="Matte Jelly"
       style="color-interpolation-filters:sRGB">
      <feColorMatrix
         id="feColorMatrix4860"
         in="SourceGraphic"
         result="color"
         values="1 0 0 0 0 0 1 0 0 0 0 0 1 0 0 0 0 0 0.85 0" />
      <feGaussianBlur
         id="feGaussianBlur4862"
         result="blur"
         stdDeviation="7"
         in="SourceAlpha" />
      <feSpecularLighting
         id="feSpecularLighting4864"
         result="specular"
         lighting-color="#ffffff"
         surfaceScale="5"
         specularConstant="0.89999998"
         specularExponent="25"
         in="blur">
        <feDistantLight
           id="feDistantLight4866"
           azimuth="225"
           elevation="60" />
      </feSpecularLighting>
      <feComposite
         id="feComposite4868"
         result="composite1"
         operator="arithmetic"
         k2="1"
         k3="1"
         in2="SourceGraphic"
         in="specular"
         k1="0"
         k4="0" />
      <feComposite
         id="feComposite4870"
         result="composite2"
         operator="atop"
         in2="color"
         in="composite1" />
    </filter>
    <filter
       id="filter4898"
       style="color-interpolation-filters:sRGB"
       height="1.5"
       width="1.5"
       y="-0.25"
       x="-0.25"
       inkscape:menu-tooltip="Neon light effect"
       inkscape:menu="Bevels"
       inkscape:label="Neon">
      <feGaussianBlur
         id="feGaussianBlur4900"
         result="result1"
         stdDeviation="1" />
      <feComposite
         id="feComposite4902"
         operator="in"
         result="result4"
         in2="result1"
         in="result1" />
      <feGaussianBlur
         id="feGaussianBlur4904"
         in="result4"
         result="result6"
         stdDeviation="7" />
      <feComposite
         id="feComposite4906"
         result="result8"
         in2="result4"
         in="result6"
         operator="over" />
      <feComposite
         id="feComposite4908"
         in2="result8"
         in="result6"
         result="fbSourceGraphic"
         operator="in" />
      <feSpecularLighting
         id="feSpecularLighting4910"
         in="fbSourceGraphic"
         result="result1"
         lighting-color="#ffffff"
         surfaceScale="2.5"
         specularConstant="2"
         specularExponent="45">
        <fePointLight
           id="fePointLight4912"
           x="-5000"
           y="-10000"
           z="20000" />
      </feSpecularLighting>
      <feComposite
         id="feComposite4914"
         in2="fbSourceGraphic"
         in="result1"
         result="result2"
         operator="in" />
      <feComposite
         id="feComposite4916"
         in2="result2"
         in="fbSourceGraphic"
         result="result4"
         operator="arithmetic"
         k2="1.2"
         k3="1.5"
         k1="0"
         k4="0" />
      <feComposite
         id="feComposite4918"
         result="result9"
         in2="result4"
         operator="over" />
      <feBlend
         id="feBlend4920"
         in2="result9"
         mode="screen" />
    </filter>
    <clipPath
       id="clipPath5511"
       clipPathUnits="userSpaceOnUse">
      <ellipse
         ry="176.05351"
         rx="176.05354"
         cy="866.00684"
         cx="1036.827"
         id="ellipse5513"
         style="opacity:1;fill:#520000;fill-opacity:1;stroke:none;stroke-width:5;stroke-linecap:butt;stroke-linejoin:miter;stroke-miterlimit:4;stroke-dasharray:none;stroke-dashoffset:0;stroke-opacity:1" />
    </clipPath>
    <clipPath
       id="clipPath5511-6"
       clipPathUnits="userSpaceOnUse">
      <ellipse
         ry="176.05351"
         rx="176.05354"
         cy="866.00684"
         cx="1036.827"
         id="ellipse5513-4"
         style="opacity:1;fill:#520000;fill-opacity:1;stroke:none;stroke-width:5;stroke-linecap:butt;stroke-linejoin:miter;stroke-miterlimit:4;stroke-dasharray:none;stroke-dashoffset:0;stroke-opacity:1" />
    </clipPath>
    <clipPath
       id="clipPath5368"
       clipPathUnits="userSpaceOnUse">
      <circle
         style="opacity:1;fill:none;fill-opacity:1;stroke:#ffffff;stroke-width:5.4000001;stroke-linecap:butt;stroke-linejoin:miter;stroke-miterlimit:4;stroke-dasharray:none;stroke-dashoffset:0;stroke-opacity:1"
         id="circle5370"
         cx="2350"
         cy="1302.3622"
         r="126.71696" />
    </clipPath>
    <clipPath
       id="clipPath5867"
       clipPathUnits="userSpaceOnUse">
      <circle
         r="158.3548"
         cy="864.91125"
         cx="1824.7369"
         id="circle5869"
         style="opacity:1;fill:none;fill-opacity:1;stroke:#ffffff;stroke-width:6.7482357;stroke-linecap:butt;stroke-linejoin:miter;stroke-miterlimit:4;stroke-dasharray:none;stroke-dashoffset:0;stroke-opacity:1" />
    </clipPath>
  </defs>
  <sodipodi:namedview
     id="base"
     pagecolor="#ffffff"
     bordercolor="#666666"
     borderopacity="1.0"
     inkscape:pageopacity="0.0"
     inkscape:pageshadow="2"
     inkscape:zoom="1.0862315"
     inkscape:cx="-30.357711"
     inkscape:cy="-8.2668241"
     inkscape:document-units="px"
     inkscape:current-layer="layer1"
     showgrid="false"
     inkscape:window-width="1920"
     inkscape:window-height="1001"
     inkscape:window-x="-9"
     inkscape:window-y="-9"
     inkscape:window-maximized="1"
     units="px"
     showguides="false" />
  <metadata
     id="metadata4287">
    <rdf:RDF>
      <cc:Work
         rdf:about="">
        <dc:format>image/svg+xml</dc:format>
        <dc:type
           rdf:resource="http://purl.org/dc/dcmitype/StillImage" />
        <dc:title />
      </cc:Work>
    </rdf:RDF>
  </metadata>
  <g
     inkscape:label="Layer 1"
     inkscape:groupmode="layer"
     id="layer1"
     transform="translate(0,-752.36208)">
    <rect
       style="color:#000000;clip-rule:nonzero;display:inline;overflow:visible;visibility:visible;opacity:1;isolation:auto;mix-blend-mode:normal;color-interpolation:sRGB;color-interpolation-filters:linearRGB;solid-color:#000000;solid-opacity:1;fill:#66cbfe;fill-opacity:1;fill-rule:nonzero;stroke:none;stroke-width:2.47819686;stroke-linecap:butt;stroke-linejoin:round;stroke-miterlimit:4;stroke-dasharray:none;stroke-dashoffset:11.59199905;stroke-opacity:1;color-rendering:auto;image-rendering:auto;shape-rendering:auto;text-rendering:auto;enable-background:accumulate"
       id="rect9764"
       width="300"
       height="300"
       x="0"
       y="752.36206" />
    <path
       inkscape:connector-curvature="0"
       id="path5460"
       style="font-style:normal;font-variant:normal;font-weight:normal;font-stretch:normal;font-size:45px;line-height:125%;font-family:Evolventa;-inkscape-font-specification:Evolventa;text-align:center;letter-spacing:0px;word-spacing:0px;writing-mode:lr-tb;text-anchor:middle;fill:#000000;fill-opacity:1;stroke:none;stroke-width:1px;stroke-linecap:butt;stroke-linejoin:miter;stroke-opacity:1"
       d="m 86.156158,1011.7688 q 0,0 0,-30.23438 0,0 -7.602539,0 0,0 0,-3.01025 0,0 18.544922,0 0,0 0,3.01025 0,0 -7.602539,0 0,0 0,30.23438 0,0 -3.339844,0 z"
       inkscape:export-xdpi="90"
       inkscape:export-ydpi="90" />
    <path
       inkscape:connector-curvature="0"
       id="path5462"
       style="font-style:normal;font-variant:normal;font-weight:normal;font-stretch:normal;font-size:45px;line-height:125%;font-family:Evolventa;-inkscape-font-specification:Evolventa;text-align:center;letter-spacing:0px;word-spacing:0px;writing-mode:lr-tb;text-anchor:middle;fill:#000000;fill-opacity:1;stroke:none;stroke-width:1px;stroke-linecap:butt;stroke-linejoin:miter;stroke-opacity:1"
       d="m 110.23819,986.56616 q 3.58154,0 6.45996,1.6919 2.90039,1.66992 4.52637,4.63623 1.64795,2.96631 1.64795,6.63574 0,5.53707 -3.55957,9.18457 -3.55957,3.6475 -8.98682,3.6475 -3.71338,0 -6.72363,-1.67 -3.01026,-1.6699 -4.724124,-4.6142 -1.691894,-2.9444 -1.691894,-6.59182 0,-5.60302 3.691408,-9.25048 3.6914,-3.66944 9.36035,-3.66944 z m -0.26367,3.0542 q -4.04297,0 -6.72363,2.83447 -2.68067,2.8125 -2.68067,7.0752 0,4.21877 2.74658,6.98727 2.74659,2.7686 6.92139,2.7686 4.06494,0 6.65771,-2.7246 2.61475,-2.7466 2.61475,-6.98733 0,-4.35058 -2.68066,-7.14111 -2.68067,-2.8125 -6.85547,-2.8125 z"
       inkscape:export-xdpi="90"
       inkscape:export-ydpi="90" />
    <path
       inkscape:connector-curvature="0"
       id="path5464"
       style="font-style:normal;font-variant:normal;font-weight:normal;font-stretch:normal;font-size:45px;line-height:125%;font-family:Evolventa;-inkscape-font-specification:Evolventa;text-align:center;letter-spacing:0px;word-spacing:0px;writing-mode:lr-tb;text-anchor:middle;fill:#000000;fill-opacity:1;stroke:none;stroke-width:1px;stroke-linecap:butt;stroke-linejoin:miter;stroke-opacity:1"
       d="m 127.57462,987.15942 q 0,0 3.33984,0 0,0 0,4.21875 1.53809,-2.35107 3.99902,-3.58154 2.48291,-1.23047 5.66895,-1.23047 3.62549,0 6.59179,1.6919 2.96631,1.69189 4.65821,4.6582 1.71387,2.94434 1.71387,6.56982 0,3.58152 -1.71387,6.54782 -1.71387,2.9444 -4.72412,4.6363 -2.98828,1.6919 -6.61377,1.6919 -3.0542,0 -5.51514,-1.2305 -2.43896,-1.2524 -4.06494,-3.6035 l 0,12.876 -3.33984,0 0,-33.24468 z m 12.74414,2.46094 q -4.06495,0 -6.85547,2.85645 -2.79053,2.85644 -2.79053,7.00927 0,4.15282 2.8125,6.98732 2.8125,2.8125 6.96533,2.8125 4.15283,0 6.92139,-2.7686 2.79053,-2.7905 2.79053,-6.94333 0,-4.35058 -2.79053,-7.14111 -2.76856,-2.8125 -7.05322,-2.8125 z"
       inkscape:export-xdpi="90"
       inkscape:export-ydpi="90" />
    <path
       inkscape:connector-curvature="0"
       id="path5466"
       style="font-style:normal;font-variant:normal;font-weight:normal;font-stretch:normal;font-size:45px;line-height:125%;font-family:Evolventa;-inkscape-font-specification:Evolventa;text-align:center;letter-spacing:0px;word-spacing:0px;writing-mode:lr-tb;text-anchor:middle;fill:#000000;fill-opacity:1;stroke:none;stroke-width:1px;stroke-linecap:butt;stroke-linejoin:miter;stroke-opacity:1"
       d="m 156.22696,1004.5178 q 0,0 3.27393,0 0.13183,2.2852 1.34033,3.5376 1.20849,1.2305 3.2959,1.2305 1.82373,0 2.98828,-1.1865 1.16455,-1.2085 1.16455,-3.0762 0,-1.6919 -0.94483,-2.6148 -0.92285,-0.9228 -3.82324,-2.1093 -2.65869,-1.12063 -3.22998,-1.40628 -0.54932,-0.28564 -1.31836,-0.98877 -1.8457,-1.71386 -1.8457,-4.39453 0,-3.01025 1.95556,-4.96582 1.97754,-1.97754 5.00977,-1.97754 2.96631,0 4.8999,1.84571 1.95557,1.8457 2.04346,4.81201 l -3.38379,0 q -0.13184,-1.75782 -1.07666,-2.68067 -0.92285,-0.92285 -2.52686,-0.92285 -1.47216,0 -2.52685,1.03272 -1.03272,1.03271 -1.03272,2.52685 0,2.10938 2.30713,3.2959 2.65869,1.12061 4.59229,1.93359 4.26269,1.77978 4.26269,6.28418 0,3.3838 -2.0874,5.5371 -2.0874,2.1314 -5.42724,2.1314 -3.58155,0 -5.73487,-2.1314 -2.13135,-2.1313 -2.17529,-5.7129 z"
       inkscape:export-xdpi="90"
       inkscape:export-ydpi="90" />
    <path
       inkscape:connector-curvature="0"
       id="path5468"
       style="font-style:normal;font-variant:normal;font-weight:normal;font-stretch:normal;font-size:45px;line-height:125%;font-family:Evolventa;-inkscape-font-specification:Evolventa;text-align:center;letter-spacing:0px;word-spacing:0px;writing-mode:lr-tb;text-anchor:middle;fill:#000000;fill-opacity:1;stroke:none;stroke-width:1px;stroke-linecap:butt;stroke-linejoin:miter;stroke-opacity:1"
       d="m 187.84561,986.56616 q 3.58154,0 6.45996,1.6919 2.90039,1.66992 4.52637,4.63623 1.64795,2.96631 1.64795,6.63574 0,5.53707 -3.55957,9.18457 -3.55957,3.6475 -8.98682,3.6475 -3.71338,0 -6.72363,-1.67 -3.01025,-1.6699 -4.72412,-4.6142 -1.6919,-2.9444 -1.6919,-6.59182 0,-5.60302 3.69141,-9.25048 3.69141,-3.66944 9.36035,-3.66944 z m -0.26367,3.0542 q -4.04297,0 -6.72363,2.83447 -2.68067,2.8125 -2.68067,7.0752 0,4.21877 2.74658,6.98727 2.74659,2.7686 6.92139,2.7686 4.06494,0 6.65772,-2.7246 2.61474,-2.7466 2.61474,-6.98733 0,-4.35058 -2.68066,-7.14111 -2.68067,-2.8125 -6.85547,-2.8125 z"
       inkscape:export-xdpi="90"
       inkscape:export-ydpi="90" />
    <path
       inkscape:connector-curvature="0"
       id="path5470"
       style="font-style:normal;font-variant:normal;font-weight:normal;font-stretch:normal;font-size:45px;line-height:125%;font-family:Evolventa;-inkscape-font-specification:Evolventa;text-align:center;letter-spacing:0px;word-spacing:0px;writing-mode:lr-tb;text-anchor:middle;fill:#000000;fill-opacity:1;stroke:none;stroke-width:1px;stroke-linecap:butt;stroke-linejoin:miter;stroke-opacity:1"
       d="m 205.18204,1011.7688 q 0,0 0,-24.60938 0,0 3.33984,0 0,0 0,24.60938 0,0 -3.33984,0 z m 0,-27.57568 q 0,0 0,-5.66895 0,0 3.33984,0 0,0 0,5.66895 0,0 -3.33984,0 z"
       inkscape:export-xdpi="90"
       inkscape:export-ydpi="90" />
    <path
       inkscape:connector-curvature="0"
       id="path5472"
       style="font-style:normal;font-variant:normal;font-weight:normal;font-stretch:normal;font-size:45px;line-height:125%;font-family:Evolventa;-inkscape-font-specification:Evolventa;text-align:center;letter-spacing:0px;word-spacing:0px;writing-mode:lr-tb;text-anchor:middle;fill:#000000;fill-opacity:1;stroke:none;stroke-width:1px;stroke-linecap:butt;stroke-linejoin:miter;stroke-opacity:1"
       d="m 214.14688,1011.7688 q 0,0 0,-33.24463 0,0 3.33984,0 0,0 0,33.24463 0,0 -3.33984,0 z"
       inkscape:export-xdpi="90"
       inkscape:export-ydpi="90" />
    <g
       id="g4195"
       transform="matrix(1.2584619,0,0,1.298706,-31.491923,720.825)"
       inkscape:export-xdpi="90"
       inkscape:export-ydpi="90">
      <g
         id="g4197">
        <g
           id="g4199">
          <path
             id="path4201"
             d="m 132.889,157.305 c 0,0 0.913,-1.919 2.519,-5.297 1.61,-3.375 3.907,-8.211 6.751,-14.015 2.873,-5.791 6.216,-12.584 10.445,-19.647 2.148,-3.511 4.49,-7.122 7.539,-10.438 1.534,-1.644 3.247,-3.234 5.334,-4.482 2.073,-1.237 4.58,-2.108 7.169,-2.102 2.593,-0.061 5.056,0.712 7.253,1.701 2.206,1.013 4.182,2.307 6.023,3.687 3.678,2.777 6.874,5.896 9.865,9.009 5.954,6.254 11.081,12.538 15.568,18.1 8.928,11.159 15.196,19.527 16.747,21.624 6.121,8.436 9.653,16.289 7.934,17.531 -1.726,1.247 -8.057,-4.594 -14.162,-13.007 -1.544,-2.087 -7.42,-10.732 -15.683,-22.209 -4.149,-5.717 -8.886,-12.173 -14.299,-18.5 -2.714,-3.146 -5.606,-6.271 -8.802,-8.963 -3.17,-2.655 -6.786,-4.953 -10.492,-5.124 -1.844,-0.11 -3.677,0.396 -5.409,1.292 -1.731,0.905 -3.328,2.208 -4.807,3.631 -2.958,2.875 -5.446,6.254 -7.73,9.568 -4.529,6.691 -8.248,13.284 -11.43,18.89 -3.158,5.626 -5.724,10.326 -7.521,13.605 -1.793,3.281 -2.812,5.146 -2.812,5.146 z"
             inkscape:connector-curvature="0" />
        </g>
      </g>
    </g>
    <g
       id="g4205"
       transform="matrix(1.2584619,0,0,1.298706,-31.491923,720.825)"
       inkscape:export-xdpi="90"
       inkscape:export-ydpi="90">
      <g
         id="g4207">
        <path
           inkscape:connector-curvature="0"
           d="m 51.964,170.259 c 0,0 6.269,-10.604 15.792,-26.712 4.811,-8.03 10.453,-17.427 16.882,-27.386 3.222,-4.976 6.649,-10.088 10.373,-15.184 3.748,-5.078 7.767,-10.165 12.513,-14.839 2.394,-2.317 4.983,-4.531 7.945,-6.408 2.964,-1.853 6.38,-3.347 10.12,-3.914 3.737,-0.503 7.657,-0.011 11.016,1.306 3.394,1.275 6.357,3.106 9.015,5.086 5.308,3.998 9.566,8.558 13.46,12.989 3.861,4.459 7.291,8.868 10.427,13.04 6.254,8.356 11.328,15.771 15.202,21.44 3.854,5.679 6.466,9.635 7.479,11.229 8.097,12.769 12.415,24.479 9.776,26.137 -2.655,1.67 -11.281,-7.363 -19.335,-20.065 -0.984,-1.6 -3.452,-5.613 -7.019,-11.412 -3.574,-5.778 -8.229,-13.354 -13.891,-21.791 -2.837,-4.21 -5.927,-8.64 -9.35,-13.044 -3.438,-4.369 -7.199,-8.798 -11.531,-12.434 -2.162,-1.807 -4.477,-3.381 -6.908,-4.452 -2.429,-1.11 -4.966,-1.528 -7.547,-1.359 -2.581,0.25 -5.217,1.171 -7.752,2.566 -2.533,1.412 -4.958,3.241 -7.268,5.244 -4.606,4.055 -8.788,8.755 -12.717,13.505 -3.917,4.775 -7.587,9.636 -11.057,14.387 -6.93,9.515 -13.09,18.571 -18.342,26.306 -10.421,15.538 -17.283,25.765 -17.283,25.765 z"
           id="path4209" />
      </g>
    </g>
  </g>
</svg>
