<?xml version="1.0" encoding="UTF-8" standalone="no"?>
<!-- Generator: Adobe Illustrator 16.0.0, SVG Export Plug-In . SVG Version: 6.00 Build 0)  -->

<svg
   xmlns:dc="http://purl.org/dc/elements/1.1/"
   xmlns:cc="http://creativecommons.org/ns#"
   xmlns:rdf="http://www.w3.org/1999/02/22-rdf-syntax-ns#"
   xmlns:svg="http://www.w3.org/2000/svg"
   xmlns="http://www.w3.org/2000/svg"
   xmlns:sodipodi="http://sodipodi.sourceforge.net/DTD/sodipodi-0.dtd"
   xmlns:inkscape="http://www.inkscape.org/namespaces/inkscape"
   version="1.1"
   id="Layer_1"
   x="0px"
   y="0px"
   width="293.758"
   height="269.03601"
   viewBox="0 0 293.758 269.03601"
   enable-background="new 0 0 300 300"
   xml:space="preserve"
   inkscape:version="0.91 r13725"
   sodipodi:docname="tsSVG.svg"
   inkscape:export-filename="C:\Users\baldy\Desktop\CIRDLES\ApexSoli\Topsoil2\uiFiles\topSoilLogo.png"
   inkscape:export-xdpi="90"
   inkscape:export-ydpi="90"><metadata
     id="metadata4179"><rdf:RDF><cc:Work
         rdf:about=""><dc:format>image/svg+xml</dc:format><dc:type
           rdf:resource="http://purl.org/dc/dcmitype/StillImage" /><dc:title></dc:title></cc:Work></rdf:RDF></metadata><defs
     id="defs4177" /><sodipodi:namedview
     pagecolor="#ffffff"
     bordercolor="#666666"
     borderopacity="1"
     objecttolerance="10"
     gridtolerance="10"
     guidetolerance="10"
     inkscape:pageopacity="0"
     inkscape:pageshadow="2"
     inkscape:window-width="1536"
     inkscape:window-height="801"
     id="namedview4175"
     showgrid="false"
     showborder="true"
     inkscape:zoom="0.36474924"
     inkscape:cx="171.9855"
     inkscape:cy="596.41405"
     inkscape:window-x="-8"
     inkscape:window-y="-8"
     inkscape:window-maximized="1"
     inkscape:current-layer="Layer_1" /><g
     id="g4159"
     transform="matrix(1.1712084,0,0,1.1712084,-20.775026,-36.306998)"><g
       id="g4137"><path
         id="path4139"
         d="M 102.199,259 C 88.999,259 72.8,249.646 66.201,238.214 L 24.395,165.786 c -6.599,-11.433 -6.599,-30.14 0,-41.572 L 66.201,51.786 C 72.8,40.354 88.999,31 102.199,31 l 83.602,0 c 13.2,0 29.399,9.354 35.998,20.786 l 41.805,72.428 c 6.6,11.433 6.6,30.14 0,41.572 l -41.805,72.428 C 215.2,249.646 199.001,259 185.801,259 l -83.602,0 z"
         inkscape:connector-curvature="0"
         style="fill:#67ccff" /></g><g
       id="g4141"><g
         id="g4143"><g
           id="g4145"><g
             id="g4147"><path
               id="path4149"
               d="m 132.889,157.305 c 0,0 0.913,-1.919 2.519,-5.297 1.61,-3.375 3.907,-8.211 6.751,-14.015 2.873,-5.791 6.216,-12.584 10.445,-19.647 2.148,-3.511 4.49,-7.122 7.539,-10.438 1.534,-1.644 3.247,-3.234 5.334,-4.482 2.073,-1.237 4.58,-2.108 7.169,-2.102 2.593,-0.061 5.056,0.712 7.253,1.701 2.206,1.013 4.182,2.307 6.023,3.687 3.678,2.777 6.874,5.896 9.865,9.009 5.954,6.254 11.081,12.538 15.568,18.1 8.928,11.159 15.196,19.527 16.747,21.624 6.121,8.436 9.653,16.289 7.934,17.531 -1.726,1.247 -8.057,-4.594 -14.162,-13.007 -1.544,-2.087 -7.42,-10.732 -15.683,-22.209 -4.149,-5.717 -8.886,-12.173 -14.299,-18.5 -2.714,-3.146 -5.606,-6.271 -8.802,-8.963 -3.17,-2.655 -6.786,-4.953 -10.492,-5.124 -1.844,-0.11 -3.677,0.396 -5.409,1.292 -1.731,0.905 -3.328,2.208 -4.807,3.631 -2.958,2.875 -5.446,6.254 -7.73,9.568 -4.529,6.691 -8.248,13.284 -11.43,18.89 -3.158,5.626 -5.724,10.326 -7.521,13.605 -1.793,3.281 -2.812,5.146 -2.812,5.146 z"
               inkscape:connector-curvature="0" /></g></g></g><g
         id="g4151"><g
           id="g4153"><g
             id="g4155"><path
               id="path4157"
               d="m 51.964,170.259 c 0,0 6.269,-10.604 15.792,-26.712 4.811,-8.03 10.453,-17.427 16.882,-27.386 3.222,-4.976 6.649,-10.088 10.373,-15.184 3.748,-5.078 7.767,-10.165 12.513,-14.839 2.394,-2.317 4.983,-4.531 7.945,-6.408 2.964,-1.853 6.38,-3.347 10.12,-3.914 3.737,-0.503 7.657,-0.011 11.016,1.306 3.394,1.275 6.357,3.106 9.015,5.086 5.308,3.998 9.566,8.558 13.46,12.989 3.861,4.459 7.291,8.868 10.427,13.04 6.254,8.356 11.328,15.771 15.202,21.44 3.854,5.679 6.466,9.635 7.479,11.229 8.097,12.769 12.415,24.479 9.776,26.137 -2.655,1.67 -11.281,-7.363 -19.335,-20.065 -0.984,-1.6 -3.452,-5.613 -7.019,-11.412 -3.574,-5.778 -8.229,-13.354 -13.891,-21.791 -2.837,-4.21 -5.927,-8.64 -9.35,-13.044 -3.438,-4.369 -7.199,-8.798 -11.531,-12.434 -2.162,-1.807 -4.477,-3.381 -6.908,-4.452 -2.429,-1.11 -4.966,-1.528 -7.547,-1.359 -2.581,0.25 -5.217,1.171 -7.752,2.566 -2.533,1.412 -4.958,3.241 -7.268,5.244 -4.606,4.055 -8.788,8.755 -12.717,13.505 -3.917,4.775 -7.587,9.636 -11.057,14.387 -6.93,9.515 -13.09,18.571 -18.342,26.306 -10.421,15.538 -17.283,25.765 -17.283,25.765 z"
               inkscape:connector-curvature="0" /></g></g></g></g><g
       id="g4172"><path
         id="path4161"
         d="m 82.557,200.936 0,-2.672 14.955,0 0,2.672 -6.086,0 0,24.622 -2.783,0 0,-24.622 -6.086,0 z"
         inkscape:connector-curvature="0" /><path
         id="path4163"
         d="m 110.574,204.851 c 3.11,0 5.688,1.126 7.732,3.377 1.858,2.054 2.788,4.484 2.788,7.292 0,2.82 -0.982,5.285 -2.946,7.394 -1.964,2.109 -4.489,3.164 -7.574,3.164 -3.099,0 -5.629,-1.055 -7.593,-3.164 -1.965,-2.108 -2.946,-4.573 -2.946,-7.394 0,-2.795 0.929,-5.22 2.788,-7.273 2.044,-2.265 4.628,-3.396 7.751,-3.396 z m -0.01,2.542 c -2.159,0 -4.016,0.798 -5.567,2.394 -1.551,1.596 -2.327,3.525 -2.327,5.789 0,1.46 0.354,2.82 1.062,4.082 0.707,1.262 1.663,2.236 2.867,2.922 1.204,0.688 2.526,1.03 3.966,1.03 1.44,0 2.762,-0.343 3.967,-1.03 1.203,-0.686 2.159,-1.66 2.867,-2.922 0.707,-1.262 1.062,-2.622 1.062,-4.082 0,-2.264 -0.779,-4.193 -2.337,-5.789 -1.56,-1.597 -3.412,-2.394 -5.56,-2.394 z"
         inkscape:connector-curvature="0" /><path
         id="path4165"
         d="m 125.938,205.37 2.598,0 0,3.711 c 1.025,-1.41 2.205,-2.468 3.54,-3.173 1.335,-0.705 2.823,-1.058 4.467,-1.058 2.867,0 5.32,1.033 7.359,3.099 2.039,2.066 3.059,4.553 3.059,7.459 0,2.969 -1.011,5.489 -3.031,7.562 -2.021,2.071 -4.458,3.107 -7.313,3.107 -1.606,0 -3.083,-0.334 -4.43,-1.002 -1.347,-0.668 -2.564,-1.663 -3.651,-2.987 l 0,10.854 -2.598,0 0,-27.572 z m 10.39,1.985 c -2.246,0 -4.138,0.785 -5.674,2.354 -1.537,1.569 -2.305,3.521 -2.305,5.856 0,1.532 0.342,2.91 1.027,4.134 0.685,1.223 1.666,2.192 2.943,2.909 1.277,0.717 2.625,1.075 4.045,1.075 1.395,0 2.705,-0.361 3.934,-1.084 1.228,-0.723 2.206,-1.733 2.934,-3.03 0.729,-1.297 1.093,-2.656 1.093,-4.078 0,-1.433 -0.361,-2.792 -1.083,-4.076 -0.723,-1.285 -1.694,-2.283 -2.916,-2.994 -1.222,-0.71 -2.555,-1.066 -3.998,-1.066 z"
         inkscape:connector-curvature="0" /><path
         id="path4167"
         d="m 149.428,220.474 2.319,-1.392 c 1.633,3.006 3.519,4.509 5.659,4.509 0.915,0 1.774,-0.213 2.579,-0.641 0.804,-0.426 1.416,-0.998 1.837,-1.716 0.42,-0.717 0.631,-1.478 0.631,-2.282 0,-0.915 -0.31,-1.812 -0.928,-2.69 -0.854,-1.212 -2.412,-2.672 -4.676,-4.379 -2.276,-1.719 -3.692,-2.962 -4.249,-3.729 -0.965,-1.286 -1.447,-2.678 -1.447,-4.175 0,-1.188 0.284,-2.27 0.854,-3.247 0.568,-0.977 1.37,-1.747 2.402,-2.311 1.033,-0.563 2.155,-0.844 3.368,-0.844 1.286,0 2.489,0.318 3.608,0.955 1.12,0.638 2.304,1.81 3.554,3.517 l -2.227,1.688 c -1.027,-1.36 -1.901,-2.257 -2.626,-2.69 -0.723,-0.433 -1.512,-0.649 -2.365,-0.649 -1.102,0 -2.001,0.334 -2.699,1.002 -0.699,0.668 -1.049,1.491 -1.049,2.468 0,0.594 0.123,1.169 0.371,1.726 0.247,0.557 0.698,1.163 1.354,1.818 0.358,0.347 1.533,1.256 3.525,2.728 2.362,1.744 3.982,3.297 4.861,4.657 0.878,1.361 1.317,2.728 1.317,4.101 0,1.979 -0.752,3.699 -2.254,5.158 -1.504,1.46 -3.331,2.189 -5.483,2.189 -1.658,0 -3.161,-0.442 -4.509,-1.327 -1.346,-0.885 -2.59,-2.366 -3.727,-4.444 z"
         inkscape:connector-curvature="0" /><path
         id="path4169"
         d="m 180.303,204.851 c 3.11,0 5.688,1.126 7.732,3.377 1.858,2.054 2.788,4.484 2.788,7.292 0,2.82 -0.982,5.285 -2.946,7.394 -1.964,2.109 -4.489,3.164 -7.574,3.164 -3.098,0 -5.629,-1.055 -7.593,-3.164 -1.964,-2.108 -2.946,-4.573 -2.946,-7.394 0,-2.795 0.929,-5.22 2.788,-7.273 2.045,-2.265 4.628,-3.396 7.751,-3.396 z m -0.009,2.542 c -2.16,0 -4.017,0.798 -5.568,2.394 -1.551,1.596 -2.327,3.525 -2.327,5.789 0,1.46 0.354,2.82 1.062,4.082 0.707,1.262 1.663,2.236 2.867,2.922 1.204,0.688 2.526,1.03 3.967,1.03 1.439,0 2.762,-0.343 3.966,-1.03 1.204,-0.686 2.159,-1.66 2.867,-2.922 0.708,-1.262 1.062,-2.622 1.062,-4.082 0,-2.264 -0.779,-4.193 -2.337,-5.789 -1.56,-1.597 -3.413,-2.394 -5.559,-2.394 z"
         inkscape:connector-curvature="0" /><path
         id="path4171"
         d="m 196.528,197.058 c 0.591,0 1.096,0.211 1.515,0.631 0.418,0.421 0.628,0.928 0.628,1.521 0,0.582 -0.21,1.083 -0.628,1.503 -0.419,0.421 -0.924,0.631 -1.515,0.631 -0.579,0 -1.078,-0.21 -1.497,-0.631 -0.419,-0.42 -0.628,-0.921 -0.628,-1.503 0,-0.594 0.209,-1.101 0.628,-1.521 0.419,-0.42 0.918,-0.631 1.497,-0.631 z m -1.29,8.312 2.598,0 0,20.188 -2.598,0 0,-20.188 z"
         inkscape:connector-curvature="0" /><path
         id="path4173"
         d="m 202.846,197.577 2.598,0 0,27.98 -2.598,0 0,-27.98 z"
         inkscape:connector-curvature="0" /></g></g></svg>